<svg xmlns="http://www.w3.org/2000/svg" fill="none" viewBox="0 0 43 44">
  <path fill="#224F7C" d="m7.172 17.859.024-.294c.378-4.474 2.67-7.278 4.69-9.752 1.873-2.29 3.49-4.268 3.49-7.187 0-.234.144-.448.372-.556a.738.738 0 0 1 .715.048c3.036 1.975 5.569 5.303 6.453 8.48.615 2.21.696 4.697.707 6.338 2.804-.544 3.44-4.357 3.446-4.398a.633.633 0 0 1 .358-.464.746.746 0 0 1 .623-.01c.147.064 3.608 1.663 3.81 8.049.014.212.015.424.015.637C31.875 24.953 26.323 30 19.5 30S7.125 24.953 7.125 18.75c0-.31.024-.601.047-.891ZM19.5 28.75c2.275 0 4.125-1.792 4.125-3.994 0-.076 0-.151-.006-.244-.027-.929-.221-1.563-.434-1.985-.399.779-1.112 1.495-2.27 1.495-.38 0-.687-.28-.687-.625 0-.89-.02-1.917-.264-2.843-.217-.822-.735-1.696-1.392-2.396-.292.91-.861 1.645-1.417 2.364-.796 1.027-1.618 2.09-1.763 3.902-.008.107-.017.215-.017.331 0 2.203 1.85 3.995 4.125 3.995Zm-4.345-.817C14.442 27.05 14 25.955 14 24.756c0-.148.01-.284.03-.54.164-2.04 1.139-3.301 2-4.414.734-.947 1.367-1.766 1.367-2.927 0-.237.148-.453.382-.56a.741.741 0 0 1 .72.062c1.319.906 2.418 2.43 2.802 3.886.196.746.265 1.554.289 2.218.477-.466.624-1.33.625-1.342a.634.634 0 0 1 .365-.47.749.749 0 0 1 .63-.002c.174.08 1.696.874 1.783 3.792.006.1.007.198.007.297 0 1.2-.442 2.293-1.155 3.177 3.91-1.534 6.654-5.071 6.654-9.183 0-.187.001-.374-.013-.582-.118-3.746-1.437-5.604-2.297-6.423-.6 1.953-2.173 4.506-5.252 4.506-.38 0-.687-.28-.687-.625 0-2.092-.052-4.509-.667-6.722-.698-2.507-2.61-5.215-4.92-7.047-.383 2.677-1.987 4.64-3.673 6.702-2.004 2.452-4.076 4.988-4.423 9.094l-.023.3c-.022.26-.044.519-.044.797 0 4.112 2.745 7.649 6.655 9.183Z"/>
  <rect width="13.8" height="8.8" x=".6" y="25.6" fill="#fff" stroke="#224F7C" stroke-width="1.2" rx="1.4"/>
  <rect width="13.8" height="8.8" x="23.6" y="34.6" fill="#fff" stroke="#224F7C" stroke-width="1.2" rx="1.4"/>
  <rect width="22.8" height="8.8" x="14.6" y="25.6" fill="#fff" stroke="#224F7C" stroke-width="1.2" rx="1.4"/>
  <rect width="22.8" height="8.8" x=".6" y="34.6" fill="#fff" stroke="#224F7C" stroke-width="1.2" rx="1.4"/>
  <path fill="#fff" d="M26.5 18h15.667v20H26.5z"/>
  <path fill="#224F7C" d="M38.5 25.333h-8.333a.333.333 0 1 0 0 .667H38.5a.333.333 0 1 0 0-.667Zm-8.333-2H33.5a.333.333 0 1 0 0-.666h-3.333a.333.333 0 1 0 0 .666ZM38.5 28h-8.333a.333.333 0 1 0 0 .667H38.5a.333.333 0 1 0 0-.667Zm0 2.667h-8.333a.333.333 0 1 0 0 .666H38.5a.333.333 0 1 0 0-.666Zm0 2.666h-8.333a.333.333 0 1 0 0 .667H38.5a.333.333 0 1 0 0-.667Z"/>
  <path fill="#224F7C" d="M37.305 18H26.5v20h15.667V22.862L37.305 18Zm.195 1.138 3.529 3.529H37.5v-3.529ZM27.167 37.333V18.667h9.666v4.666H41.5v14H27.167Z"/>
</svg>
