<svg xmlns="http://www.w3.org/2000/svg" fill="none" viewBox="0 0 44 44">
  <path fill="#224F7C" d="M16.795 7.734h2.578v12.891h-2.578V7.735Zm7.735 7.735h1.288a3.872 3.872 0 0 0 3.867-3.867 3.872 3.872 0 0 0-3.867-3.868h-3.867v12.891h2.578v-5.156Zm0-5.156h1.288c.711 0 1.29.578 1.29 1.289a1.29 1.29 0 0 1-1.29 1.289H24.53v-2.579Z"/>
  <path fill="#224F7C" d="M23.29 36.487v-3.719l8.633-8.46A14.073 14.073 0 0 0 36.18 14.18C36.18 6.36 29.819 0 22 0S7.82 6.361 7.82 14.18c0 3.842 1.512 7.44 4.257 10.129l8.634 8.46v3.718a3.886 3.886 0 0 0-2.356 2.357H7.82v2.578h10.535A3.873 3.873 0 0 0 22 44a3.873 3.873 0 0 0 3.645-2.578H36.18v-2.578H25.645a3.886 3.886 0 0 0-2.356-2.357ZM10.397 14.18c0-6.397 5.205-11.602 11.602-11.602S33.602 7.783 33.602 14.18c0 3.143-1.237 6.087-3.483 8.287L22 30.422l-8.119-7.955a11.515 11.515 0 0 1-3.483-8.287ZM22 41.422a1.29 1.29 0 0 1-1.29-1.29 1.29 1.29 0 0 1 2.578 0A1.289 1.289 0 0 1 22 41.422Z"/>
</svg>
