<?xml version="1.0" encoding="UTF-8" standalone="no"?>
<!-- Created with Inkscape (http://www.inkscape.org/) -->

<svg
   viewBox="0 0 512 512"
   version="1.1"
   id="svg5"
   xml:space="preserve"
   inkscape:version="1.2.1 (9c6d41e410, 2022-07-14)"
   sodipodi:docname="cloudplatform.svg"
   xmlns:inkscape="http://www.inkscape.org/namespaces/inkscape"
   xmlns:sodipodi="http://sodipodi.sourceforge.net/DTD/sodipodi-0.dtd"
   xmlns="http://www.w3.org/2000/svg"
   xmlns:svg="http://www.w3.org/2000/svg"><sodipodi:namedview
     id="namedview7"
     pagecolor="#ffffff"
     bordercolor="#000000"
     borderopacity="0.25"
     inkscape:showpageshadow="2"
     inkscape:pageopacity="0.0"
     inkscape:pagecheckerboard="0"
     inkscape:deskcolor="#d1d1d1"
     inkscape:document-units="px"
     showgrid="false"
     inkscape:zoom="0.69191503"
     inkscape:cx="617.85043"
     inkscape:cy="239.91385"
     inkscape:window-width="2560"
     inkscape:window-height="1387"
     inkscape:window-x="1912"
     inkscape:window-y="-8"
     inkscape:window-maximized="1"
     inkscape:current-layer="layer1" /><defs
     id="defs2" /><g
     inkscape:label="Calque 1"
     inkscape:groupmode="layer"
     id="layer1"><path
       style="display:inline;fill:#f23a38;fill-opacity:1"
       d="m 126.15927,386.86156 c -10.5251,-1.10124 -26.02322,-5.0075 -37.589053,-9.47423 C 64.997231,368.28344 44.51914,352.47697 30.021006,332.19483 6.0227119,298.62246 -0.6096764,253.65618 12.594837,214.04886 c 13.261824,-39.77922 42.780997,-68.85689 83.85545,-82.60126 27.606173,-9.2376 63.602193,-10.01386 91.615943,-1.97572 20.92541,6.00424 40.86266,17.39799 54.81511,31.32575 6.14368,6.13281 7.14972,7.57917 6,8.62606 -10.52899,9.58729 -29.22556,26.72929 -32.14057,29.46816 l -3.75923,3.53207 -6.24077,-6.02805 c -7.86486,-7.5968 -11.60019,-10.30801 -20.29213,-14.72863 -10.6294,-5.406 -20.18435,-7.76319 -33.94864,-8.37508 -14.06703,-0.62534 -23.61927,0.63037 -35.26121,4.63535 -12.03168,4.13905 -18.564606,8.39632 -29.26374,19.0701 -12.842189,12.81177 -18.336302,23.46967 -22.034403,42.744 -1.788881,9.32357 -0.694498,31.83066 2.006145,41.25839 7.914853,27.63011 28.737396,47.91812 56.421968,54.97356 4.32782,1.10295 12.65282,2.28238 18.5,2.62095 24.59387,1.42406 46.5323,-6.56764 63.09078,-22.98263 l 6.94833,-6.88812 17.65155,16.33121 c 9.70835,8.98217 17.89127,16.95592 18.18426,17.71946 1.24726,3.25029 -19.34352,20.67206 -33.74368,28.55039 -24.31478,13.30262 -56.46158,18.92455 -88.84073,15.53674 z"
       id="path844" /><path
       style="display:inline;fill:#000000;fill-opacity:1"
       d="M 303,255.4272 V 126.8544 l 56.75,0.40277 c 61.46185,0.43621 65.63098,0.75318 83.42162,6.34244 30.39266,9.54842 50.33962,29.39873 57.43998,57.16169 8.00785,31.31127 0.47287,63.93684 -19.34294,83.75265 -9.9385,9.93849 -21.65868,16.89807 -36.76866,21.83363 -17.75547,5.79969 -18.50001,5.86912 -68.25,6.36373 L 330,303.17112 V 343.58556 384 H 316.5 303 Z m 126.2387,20.33497 c 24.65181,-6.68583 39.81968,-20.97572 45.3895,-42.76217 3.77976,-14.78461 1.32423,-37.85405 -5.35635,-50.32226 -4.50051,-8.39947 -14.61558,-17.76548 -24.35748,-22.5537 -16.88605,-8.29963 -18.41344,-8.4945 -69.66437,-8.88827 L 330,150.88811 v 64.12072 64.12071 l 44.75,-0.36306 c 44.70752,-0.36273 44.75924,-0.36558 54.4887,-3.00431 z"
       id="path277" /></g></svg>
