<svg xmlns="http://www.w3.org/2000/svg" fill="none" viewBox="0 0 44 44">
  <g clip-path="url(#a)">
    <path fill="#224F7C" d="M21.998 17.587a4.395 4.395 0 1 0 0 8.79 4.395 4.395 0 0 0 0-8.79Zm0 7.325a2.93 2.93 0 1 1 0-5.86 2.93 2.93 0 0 1 0 5.86Z"/>
    <path fill="#224F7C" d="M37.73 31.622a4.396 4.396 0 0 0-5.087 0l-4.974-4.974a7.282 7.282 0 0 0 1.655-4.666 7.326 7.326 0 0 0-6.593-7.29V8.73a4.395 4.395 0 1 0-1.465 0v5.963A7.326 7.326 0 0 0 16.33 26.61l-4.974 4.974a4.395 4.395 0 1 0 1.04 1.04l4.974-4.973a7.326 7.326 0 0 0 3.897 1.655v5.963a4.395 4.395 0 1 0 1.465 0v-5.963a7.326 7.326 0 0 0 3.897-1.619l4.974 4.974a4.395 4.395 0 1 0 6.129-1.04ZM8.814 38.098a2.93 2.93 0 1 1 0-5.86 2.93 2.93 0 0 1 0 5.86ZM19.068 4.4a2.93 2.93 0 1 1 5.86 0 2.93 2.93 0 0 1-5.86 0Zm5.86 35.162a2.93 2.93 0 1 1-5.86 0 2.93 2.93 0 0 1 5.86 0Zm-2.93-11.72a5.86 5.86 0 1 1 0-11.722 5.86 5.86 0 0 1 0 11.721Zm13.187 10.255a2.93 2.93 0 1 1 0-5.86 2.93 2.93 0 0 1 0 5.86Z"/>
    <path fill="#224F7C" d="M22 5.866a1.465 1.465 0 1 0 0-2.93 1.465 1.465 0 0 0 0 2.93Z"/>
  </g>
  <defs>
    <clipPath id="a">
      <path fill="#fff" d="M0 0h44v44H0z"/>
    </clipPath>
  </defs>
</svg>
