<svg width="44" height="44" viewBox="0 0 44 44" fill="none" xmlns="http://www.w3.org/2000/svg">
    <path d="M10.8418 33.2459C9.9373 33.1513 8.60543 32.8156 7.61149 32.4317C5.58568 31.6494 3.82585 30.291 2.57992 28.548C0.517562 25.6629 -0.0524087 21.7986 1.08235 18.3948C2.22204 14.9763 4.75885 12.4774 8.28868 11.2963C10.6611 10.5024 13.7545 10.4357 16.1619 11.1265C17.9602 11.6425 19.6736 12.6216 20.8726 13.8186C21.4006 14.3456 21.487 14.4699 21.3882 14.5599C20.4834 15.3838 18.8767 16.8569 18.6261 17.0923L18.3031 17.3958L17.7668 16.8778C17.0909 16.2249 16.7699 15.9919 16.0229 15.612C15.1095 15.1475 14.2883 14.9449 13.1055 14.8923C11.8966 14.8386 11.0757 14.9465 10.0752 15.2907C9.04122 15.6464 8.4798 16.0122 7.56034 16.9295C6.45672 18.0305 5.98457 18.9464 5.66676 20.6028C5.51303 21.404 5.60708 23.3382 5.83916 24.1484C6.51935 26.5229 8.30878 28.2664 10.6879 28.8727C11.0598 28.9675 11.7753 29.0689 12.2778 29.098C14.3913 29.2204 16.2766 28.5336 17.6996 27.1229L18.2968 26.531L19.8137 27.9344C20.648 28.7063 21.3512 29.3916 21.3764 29.4572C21.4836 29.7365 19.7141 31.2337 18.4765 31.9107C16.387 33.0539 13.6244 33.5371 10.8418 33.2459V33.2459Z" fill="#F23A38"/>
    <path d="M26.0391 21.9508V10.9016L30.916 10.9362C36.1979 10.9737 36.5562 11.0009 38.0851 11.4812C40.6969 12.3018 42.4111 14.0077 43.0213 16.3936C43.7095 19.0844 43.0619 21.8881 41.359 23.591C40.5049 24.4451 39.4977 25.0432 38.1992 25.4674C36.6734 25.9658 36.6094 25.9717 32.334 26.0143L28.3594 26.0538V29.5269V33H27.1992H26.0391V21.9508ZM36.8877 23.6983C39.0062 23.1237 40.3097 21.8957 40.7884 20.0234C41.1132 18.7529 40.9022 16.7704 40.328 15.6989C39.9413 14.977 39.072 14.1721 38.2348 13.7607C36.7837 13.0474 36.6524 13.0307 32.248 12.9968L28.3594 12.9669V18.4773V23.9877L32.2051 23.9565C36.0471 23.9253 36.0516 23.9251 36.8877 23.6983V23.6983Z" fill="black"/>
</svg>
