<svg xmlns="http://www.w3.org/2000/svg" fill="none" viewBox="0 0 44 44">
  <g clip-path="url(#a)">
    <path fill="#224F7C" d="M39.853 4.147c-5.53-5.53-14.527-5.53-20.056 0a14.18 14.18 0 0 0-3.454 14.393L.378 34.506a1.29 1.29 0 0 0-.378.912v7.293A1.29 1.29 0 0 0 1.29 44h7.292c.342 0 .67-.136.912-.378l1.824-1.823a1.29 1.29 0 0 0 .369-1.06l-.228-1.959 2.714-.256a1.29 1.29 0 0 0 1.163-1.162l.256-2.715 1.958.228a1.288 1.288 0 0 0 1.438-1.28v-2.402h2.357c.34 0 .665-.134.907-.372l3.203-3.166a14.18 14.18 0 0 0 14.398-3.452c5.53-5.53 5.53-14.527 0-20.056ZM38.03 22.38a11.605 11.605 0 0 1-12.436 2.588 1.29 1.29 0 0 0-1.376.284l-3.402 3.363h-3.117a1.29 1.29 0 0 0-1.29 1.29v2.242l-1.828-.213a1.29 1.29 0 0 0-1.433 1.16l-.28 2.963-2.963.28a1.29 1.29 0 0 0-1.16 1.432l.308 2.647-1.005 1.006h-5.47v-5.47l16.165-16.165a1.29 1.29 0 0 0 .29-1.381A11.605 11.605 0 0 1 21.62 5.97c4.524-4.525 11.885-4.525 16.41 0 4.524 4.524 4.524 11.885 0 16.409Z"/>
    <path fill="#224F7C" d="M36.206 7.793a3.872 3.872 0 0 0-5.47 0 3.872 3.872 0 0 0 0 5.47 3.872 3.872 0 0 0 5.47 0 3.872 3.872 0 0 0 0-5.47Zm-1.823 3.647a1.29 1.29 0 0 1-1.823 0 1.288 1.288 0 1 1 1.823 0Z"/>
  </g>
  <defs>
    <clipPath id="a">
      <path fill="#fff" d="M0 0h44v44H0z"/>
    </clipPath>
  </defs>
</svg>
