<svg xmlns="http://www.w3.org/2000/svg" width="44" height="44" fill="none" viewBox="0 0 44 44">
  <g clip-path="url(#a)">
    <path fill="#224F7C" d="M2.957 5.5h6.472V.53l-1.08.865A.786.786 0 1 1 7.365.17L7.581 0h-6.01v4.607l3.425-2.854A.787.787 0 1 1 6.004 2.96L2.957 5.5Zm33 0h6.472V.53l-1.08.865A.786.786 0 0 1 40.365.17l.216-.17h-6.01v4.607l3.425-2.854a.787.787 0 0 1 1.008 1.208L35.957 5.5ZM10.214 42.429H0V44h11.002L11 42.429h-.786Zm33 0H33V44h11.002L44 42.429h-.786Zm-16.5 0H16.5V44h11.002l-.002-1.571h-.786ZM19.457 5.5h6.472V.53l-1.08.865A.786.786 0 0 1 23.865.17l.216-.17h-6.01v4.607l3.425-2.854a.787.787 0 0 1 1.008 1.208L19.457 5.5Zm23.757 1.571H33v1.572h4.714v10.214a2.357 2.357 0 0 1-2.357 2.357h-3.183a10.101 10.101 0 0 0-.855-3.378.737.737 0 0 0-.087-.18 10.219 10.219 0 0 0-8.446-5.83V8.643H27.5V7.07h-11v1.572h4.714v3.183a10.22 10.22 0 0 0-8.446 5.833.737.737 0 0 0-.087.18 10.103 10.103 0 0 0-.855 3.375H8.643a2.357 2.357 0 0 1-2.357-2.357V8.643H11V7.07H0v1.572h4.714v10.214A3.914 3.914 0 0 0 6.31 22a3.914 3.914 0 0 0-1.596 3.143v10.214H1.571v4.608l3.425-2.855a.787.787 0 1 1 1.008 1.209l-3.047 2.538h6.472v-4.97l-1.08.865a.786.786 0 0 1-.984-1.224l.216-.17H6.286V25.142a2.357 2.357 0 0 1 2.357-2.357h3.183a10.14 10.14 0 0 0 1.273 4.208.79.79 0 0 0 .116.19 10.21 10.21 0 0 0 8 4.99v3.183H18.07v4.608l3.425-2.855a.786.786 0 1 1 1.008 1.209l-3.047 2.538h6.472v-4.97l-1.08.865a.786.786 0 0 1-.984-1.224l.216-.17h-1.295v-3.184a10.21 10.21 0 0 0 8-4.988.774.774 0 0 0 .115-.19 10.128 10.128 0 0 0 1.273-4.21h3.183a2.357 2.357 0 0 1 2.357 2.357v10.214H34.57v4.608l3.425-2.855a.786.786 0 1 1 1.008 1.209l-3.047 2.538h6.472v-4.97l-1.08.865a.786.786 0 0 1-.984-1.224l.216-.17h-1.295V25.142A3.915 3.915 0 0 0 37.69 22a3.914 3.914 0 0 0 1.596-3.143V8.643H44V7.07h-.786Zm-24.75 7.051c-.611.98-1.07 2.046-1.359 3.164h-2.34a8.687 8.687 0 0 1 3.7-3.164Zm-4.507 4.735h2.8c-.128.78-.207 1.567-.235 2.357h-3.125a8.549 8.549 0 0 1 .56-2.357Zm.354 7.072a8.564 8.564 0 0 1-.914-3.143h3.123c.04 1.057.171 2.108.393 3.143h-2.602Zm1.027 1.571h2.008c.274.835.65 1.634 1.118 2.378a8.688 8.688 0 0 1-3.126-2.378Zm5.876 2.933a5.46 5.46 0 0 1-2.193-2.933h2.193v2.933Zm0-4.504h-2.686a16.106 16.106 0 0 1-.437-3.143h3.123v3.143Zm0-4.715h-3.123a16.66 16.66 0 0 1 .267-2.357h2.856v2.357Zm0-3.928h-2.468c.597-1.908 1.517-3.235 2.468-3.72v3.72Zm8.02 0h-2.339a11.355 11.355 0 0 0-1.36-3.164 8.687 8.687 0 0 1 3.7 3.164Zm-6.448-3.72c.951.485 1.871 1.808 2.468 3.72h-2.468v-3.72Zm0 5.291h2.856c.145.779.234 1.566.267 2.357h-3.123v-2.357Zm0 11.576V27.5h2.193a5.46 5.46 0 0 1-2.193 2.933Zm0-4.504v-3.143h3.123a16.106 16.106 0 0 1-.437 3.143h-2.686Zm2.75 3.949c.469-.744.844-1.543 1.118-2.378h2.008a8.688 8.688 0 0 1-3.126 2.378Zm4.153-3.95h-2.598c.22-1.034.35-2.085.389-3.142h3.123a8.564 8.564 0 0 1-.914 3.143Zm-2.21-4.714a18.594 18.594 0 0 0-.235-2.357h2.8c.298.755.486 1.549.56 2.357H27.48Z"/>
  </g>
  <defs>
    <clipPath id="a">
      <path fill="#fff" d="M0 0h44v44H0z"/>
    </clipPath>
  </defs>
</svg>
