<svg xmlns="http://www.w3.org/2000/svg" width="44" height="44" fill="none" viewBox="0 0 44 44">
  <g clip-path="url(#a)">
    <path fill="#948a54ff" d="M36.951 7.912a.858.858 0 0 1-.607-.251l-.012-.012a.859.859 0 0 1 1.214-1.215l.012.012a.859.859 0 0 1-.607 1.466ZM16.128 19.02c-.412 0-.682.21-.811.628l-.887 2.865-.865-2.726c-.173-.519-.47-.777-.886-.777-.39 0-.668.258-.834.777l-.874 2.726-.887-2.865c-.139-.42-.412-.629-.823-.629a.82.82 0 0 0-.821.833c0 .122.022.24.065.346l1.482 3.969c.214.563.55.843 1.003.843.427 0 .726-.256.9-.768l.81-2.4.812 2.4c.178.512.477.768.896.768.46 0 .797-.28 1.006-.843l1.481-3.969a1.15 1.15 0 0 0 .064-.345.81.81 0 0 0-.83-.833Zm18.767 0c-.412 0-.682.21-.811.628l-.887 2.865-.864-2.726c-.173-.519-.468-.777-.887-.777-.39 0-.668.258-.833.777l-.875 2.726-.886-2.865c-.137-.42-.412-.629-.821-.629a.787.787 0 0 0-.59.244.82.82 0 0 0-.234.59c0 .121.022.238.066.345l1.481 3.969c.217.563.55.843 1.006.843.424 0 .724-.256.896-.768l.812-2.4.81 2.4c.181.512.481.768.898.768.462 0 .796-.28 1.006-.843l1.48-3.969a1.1 1.1 0 0 0 .066-.345.807.807 0 0 0-.238-.595.807.807 0 0 0-.595-.239Zm-9.383 0c-.412 0-.683.21-.812.628l-.886 2.865-.865-2.726c-.173-.519-.468-.777-.887-.777-.39 0-.667.258-.833.777l-.875 2.726-.886-2.865c-.137-.42-.412-.629-.821-.629a.782.782 0 0 0-.59.244.821.821 0 0 0-.234.59c0 .121.022.238.066.345l1.481 3.969c.217.563.55.843 1.006.843.424 0 .724-.256.897-.768l.81-2.4.812 2.4c.18.512.478.768.896.768.461 0 .797-.28 1.007-.843l1.48-3.969c.045-.129.064-.245.064-.345a.81.81 0 0 0-.83-.833Z"/>
    <path fill="#948a54ff" d="M39.822 9.1a.859.859 0 0 0-1.39 1.008 20.194 20.194 0 0 1 2.753 5.288c-2.056-2.236-5.133-4.077-8.875-5.283-.704-1.988-1.582-3.773-2.601-5.257a14.709 14.709 0 0 0-1.936-2.307 20.159 20.159 0 0 1 5.925 2.88.859.859 0 1 0 .991-1.403A21.862 21.862 0 0 0 22 0 21.855 21.855 0 0 0 6.443 6.443 21.855 21.855 0 0 0 0 21.999a21.859 21.859 0 0 0 6.443 15.557A21.853 21.853 0 0 0 21.999 44a21.858 21.858 0 0 0 15.557-6.444A21.857 21.857 0 0 0 44 21.999 21.84 21.84 0 0 0 39.822 9.1Zm-.38 15.478v-1.72h2.783c-.431 3.34-3.362 6.439-8.059 8.492a3.144 3.144 0 0 0-.881-.816c.172-.747.322-1.513.448-2.29h2.047a3.668 3.668 0 0 0 3.662-3.666ZM37.21 14.283c2.939 1.932 4.69 4.34 5.016 6.857h-2.784v-1.699a3.668 3.668 0 0 0-3.663-3.665h-2.04a34.103 34.103 0 0 0-.789-3.623c1.564.587 3 1.3 4.26 2.13Zm-5.213 1.493h-9.14v-3.349a3.136 3.136 0 0 0 2.106-2.018c2.1.18 4.123.549 6.003 1.09.429 1.345.776 2.78 1.03 4.277Zm-9.14-13.99c2.439.387 4.28 2.36 5.437 4.043.736 1.073 1.394 2.321 1.959 3.702a33.759 33.759 0 0 0-5.218-.84 3.134 3.134 0 0 0-2.178-2.27V1.786Zm.549 7.638c0 .776-.632 1.407-1.407 1.407a1.408 1.408 0 0 1-1.407-1.407 1.408 1.408 0 0 1 2.814 0Zm-2.266 3.003v3.349h-9.137a31.507 31.507 0 0 1 1.03-4.277 31.476 31.476 0 0 1 6.002-1.09 3.136 3.136 0 0 0 2.105 2.018Zm0-10.64V6.42a3.135 3.135 0 0 0-2.178 2.27 33.788 33.788 0 0 0-5.216.84c.565-1.38 1.223-2.63 1.96-3.702 1.156-1.683 2.997-3.655 5.434-4.043Zm-4.924.772a14.718 14.718 0 0 0-1.926 2.298c-1.02 1.484-1.898 3.268-2.601 5.256-3.735 1.204-6.807 3.04-8.863 5.27A20.373 20.373 0 0 1 16.216 2.56ZM8.389 28.244h1.876c.125.77.275 1.536.449 2.29-.344.213-.644.49-.883.815-4.695-2.052-7.624-5.15-8.056-8.491h2.95v1.72a3.668 3.668 0 0 0 3.664 3.666ZM4.726 19.44v1.699H1.774c.326-2.517 2.077-4.925 5.016-6.857 1.26-.83 2.695-1.543 4.259-2.13a34.186 34.186 0 0 0-.787 3.623H8.389a3.668 3.668 0 0 0-3.663 3.665ZM2.83 28.627c1.564 1.696 3.734 3.181 6.406 4.337a3.128 3.128 0 0 0 3.437 3.336c1.006 2.132 2.212 3.866 3.553 5.144A20.374 20.374 0 0 1 2.831 28.627Zm8.114 4.565c0-.775.631-1.407 1.407-1.407s1.407.632 1.407 1.407c0 .776-.631 1.407-1.407 1.407a1.408 1.408 0 0 1-1.407-1.407Zm10.195 9.021c-2.61-.42-5.057-2.75-6.871-6.556a3.13 3.13 0 0 0 .786-.901c1.963.396 4.003.62 6.085.668v6.79Zm0-8.506a33.212 33.212 0 0 1-5.666-.618 3.127 3.127 0 0 0-3.104-3.02 34.056 34.056 0 0 1-.364-1.825h9.134v5.463Zm-12.751-7.18a1.949 1.949 0 0 1-1.946-1.949v-5.137a1.95 1.95 0 0 1 1.946-1.948H35.78a1.95 1.95 0 0 1 1.945 1.948v5.137a1.949 1.949 0 0 1-1.946 1.948H8.39Zm23.256 5.258a1.409 1.409 0 0 1 1.407 1.407c0 .776-.63 1.407-1.407 1.407a1.408 1.408 0 0 1-1.406-1.407c0-.775.63-1.407 1.406-1.407Zm-3.121 1.304c-1.827.364-3.726.57-5.667.618v-5.463h9.135a33.594 33.594 0 0 1-.363 1.825 3.127 3.127 0 0 0-3.105 3.02Zm-5.667 9.124v-6.789a34.953 34.953 0 0 0 6.086-.667c.202.348.47.654.786.9-1.812 3.807-4.26 6.136-6.872 6.556Zm4.916-.769c1.341-1.279 2.547-3.012 3.55-5.144a3.128 3.128 0 0 0 3.436-3.335c2.674-1.156 4.846-2.642 6.41-4.339a20.374 20.374 0 0 1-13.396 12.818Z"/>
  </g>
  <defs>
    <clipPath id="a">
      <path fill="#fff" d="M0 0h44v44H0z"/>
    </clipPath>
  </defs>
</svg>
