<svg xmlns="http://www.w3.org/2000/svg" width="44" height="44" fill="none" viewBox="0 0 44 44">
  <g clip-path="url(#a)">
    <path fill="#224F7C" d="m43.184 20.022-5.67-5.672a5.606 5.606 0 0 0 1.4-1.042 5.775 5.775 0 0 0 1.704-4.113 5.773 5.773 0 0 0-1.703-4.11 5.824 5.824 0 0 0-8.225 0 5.6 5.6 0 0 0-1.042 1.4L23.978.819A2.777 2.777 0 0 0 22 0c-.748 0-1.451.29-1.978.818l-6.166 6.165c-.621.624-.856 1.398-.645 2.123.209.715.807 1.236 1.645 1.434.063.022.424.161.899.635a3.244 3.244 0 0 1 0 4.58 3.24 3.24 0 0 1-4.577 0c-.476-.476-.615-.837-.637-.9-.2-.84-.72-1.438-1.436-1.646-.727-.21-1.5.026-2.122.648L.818 20.022A2.778 2.778 0 0 0 0 22c0 .749.29 1.451.817 1.977l5.67 5.67a5.621 5.621 0 0 0-1.403 1.044 5.78 5.78 0 0 0-1.703 4.113c0 1.553.605 3.013 1.704 4.11a5.779 5.779 0 0 0 4.111 1.704h.001a5.775 5.775 0 0 0 4.112-1.703 5.593 5.593 0 0 0 1.042-1.4l5.67 5.666c.527.528 1.23.819 1.979.819.749 0 1.451-.29 1.978-.818l6.166-6.163c.622-.623.858-1.396.647-2.123-.208-.716-.808-1.238-1.646-1.436-.064-.022-.425-.161-.899-.634a3.243 3.243 0 0 1 0-4.58 3.217 3.217 0 0 1 2.29-.949c.864 0 1.677.337 2.288.949.476.476.614.837.635.899.2.84.722 1.44 1.438 1.648.725.21 1.498-.026 2.121-.648l6.167-6.168a2.806 2.806 0 0 0-.001-3.955Zm-28.323-9.48.029.007-.029-.007Zm14.277 22.916ZM31.886 7.77l-.007.03.007-.03Zm-21.337 7.123-.007-.03.007.03Zm1.564 21.34s.001-.011.007-.032l-.007.031ZM33.45 29.11Zm7.909-6.955-5.67 5.671a5.582 5.582 0 0 0-1.042-1.404 5.773 5.773 0 0 0-4.112-1.704h-.002a5.78 5.78 0 0 0-4.111 1.704 5.824 5.824 0 0 0 0 8.226 5.6 5.6 0 0 0 1.403 1.042l-5.672 5.669a.215.215 0 0 1-.155.062.216.216 0 0 1-.155-.063l-6.163-6.16c-.473-.475-1.034-.726-1.596-.726-.176 0-.352.024-.525.074-.716.207-1.239.805-1.439 1.647-.021.062-.159.422-.636.898a3.214 3.214 0 0 1-2.288.948 3.216 3.216 0 0 1-2.29-.948 3.214 3.214 0 0 1-.948-2.288c0-.865.337-1.678.948-2.29.476-.475.838-.615.901-.637.839-.2 1.437-.722 1.644-1.437.21-.726-.026-1.499-.647-2.12L2.64 22.153A.213.213 0 0 1 2.578 22c0-.042.01-.104.062-.155l5.67-5.67c.195.381.517.876 1.042 1.403a5.822 5.822 0 0 0 8.225 0 5.826 5.826 0 0 0 0-8.226 5.597 5.597 0 0 0-1.403-1.042l5.67-5.67A.214.214 0 0 1 22 2.579c.043 0 .104.011.156.063l6.163 6.16c.621.624 1.394.861 2.12.651.717-.207 1.24-.806 1.44-1.646.021-.063.16-.423.635-.898a3.243 3.243 0 0 1 4.58 0c.61.61.947 1.422.947 2.287s-.337 1.678-.948 2.29c-.476.475-.837.614-.9.636-.84.2-1.438.723-1.645 1.438-.21.726.026 1.498.648 2.118l6.164 6.166a.228.228 0 0 1 .001.313ZM7.77 31.885l.031-.007-.03.007Zm28.457-19.773-.03.007a.277.277 0 0 1 .03-.007Z"/>
  </g>
  <defs>
    <clipPath id="a">
      <path fill="#fff" d="M0 0h44v44H0z"/>
    </clipPath>
  </defs>
</svg>
