<svg xmlns="http://www.w3.org/2000/svg" width="44" height="44" fill="none" viewBox="0 0 44 44">
  <path fill="#948a54ff" d="M35.028 6.037A20.364 20.364 0 0 0 20.604 0h-.002a20.365 20.365 0 0 0-14.63 6.036A20.37 20.37 0 0 0 0 20.5c0 2.692.514 5.31 1.528 7.78a.601.601 0 0 0 1.111-.457c-.4-.975-.716-1.976-.95-2.996 1.782 2.174 4.899 4.005 8.978 5.17 1.18 4.21 3.074 7.434 5.34 9.273a19.21 19.21 0 0 1-5.288-2.13 19.416 19.416 0 0 1-6.888-6.908.6.6 0 1 0-1.037.607 20.622 20.622 0 0 0 7.315 7.336A20.485 20.485 0 0 0 20.396 41h.207a20.366 20.366 0 0 0 14.425-6.036A20.369 20.369 0 0 0 41 20.5a20.37 20.37 0 0 0-5.972-14.463Zm-4.08 7.606c-.083-.433-.173-.86-.27-1.28 2.615.818 4.818 1.94 6.413 3.273 1.562 1.306 2.474 2.77 2.668 4.263h-7.19v-4.323c0-.966-.702-1.77-1.622-1.933ZM21.1 10.905c2.873.045 5.705.415 8.248 1.077.135.53.26 1.075.37 1.63H21.1v-2.707Zm0-1.202V1.239c1.593.194 3.148 1.158 4.527 2.813 1.377 1.653 2.524 3.92 3.348 6.599-2.461-.582-5.152-.906-7.875-.948Zm-1.2-8.464v8.464a38.67 38.67 0 0 0-4.297.301.6.6 0 0 0 .152 1.193c1.35-.172 2.742-.27 4.145-.292v2.708h-8.618c.11-.556.235-1.1.37-1.631.46-.12.932-.232 1.408-.332a.6.6 0 0 0-.248-1.176 32.79 32.79 0 0 0-.786.177c.823-2.679 1.97-4.946 3.347-6.599 1.378-1.654 2.932-2.618 4.527-2.813Zm-9.846 12.404a1.966 1.966 0 0 0-1.622 1.933v4.323h-7.19c.194-1.494 1.106-2.957 2.668-4.263 1.595-1.333 3.798-2.455 6.413-3.274-.097.42-.187.848-.269 1.281Zm-.42 1.933c0-.42.342-.762.762-.762h20.21c.42 0 .762.342.762.762v9.848c0 .42-.342.762-.762.762h-20.21a.763.763 0 0 1-.762-.762v-9.848Zm2.019 13.442a30.6 30.6 0 0 1-.37-1.63H19.9v2.708c-2.873-.046-5.704-.416-8.248-1.078Zm9.45-1.63h8.617c-.11.556-.235 1.1-.37 1.63-2.543.662-5.375 1.032-8.248 1.078v-2.708Zm9.845-.03a1.967 1.967 0 0 0 1.622-1.934v-4.323h7.19c-.194 1.495-1.106 2.957-2.668 4.263-1.595 1.334-3.798 2.456-6.413 3.274.097-.42.187-.847.27-1.28Zm8.367-11.182c-1.782-2.175-4.9-4.007-8.981-5.172-1.18-4.216-3.078-7.441-5.347-9.28a19.174 19.174 0 0 1 9.19 5.16 19.174 19.174 0 0 1 5.138 9.292ZM6.824 6.884a19.174 19.174 0 0 1 9.192-5.16c-2.27 1.838-4.168 5.064-5.349 9.28-4.081 1.165-7.199 2.997-8.98 5.172a19.173 19.173 0 0 1 5.137-9.292ZM1.24 21.101h7.19v4.323c0 .966.702 1.771 1.622 1.933.082.434.172.86.27 1.28-2.616-.818-4.82-1.94-6.414-3.273-1.562-1.306-2.474-2.768-2.668-4.263Zm10.784 9.248c2.46.582 5.151.907 7.874.948v8.465c-1.593-.194-3.148-1.158-4.527-2.814-1.376-1.653-2.524-3.92-3.347-6.599Zm22.151 3.767a19.175 19.175 0 0 1-9.197 5.161c1.047-.845 2.02-1.99 2.883-3.407a.601.601 0 0 0-1.026-.625c-1.629 2.675-3.647 4.258-5.735 4.515v-8.463c2.723-.041 5.414-.366 7.875-.948a25.12 25.12 0 0 1-.73 2.06.6.6 0 0 0 1.114.452c.366-.901.692-1.864.972-2.865 4.082-1.164 7.2-2.996 8.982-5.172a19.175 19.175 0 0 1-5.138 9.292Z"/>
  <path fill="#948a54ff" d="M11.183 23.922c.118.091.27.138.453.138h1.859c.754 0 1.367-.204 1.82-.606.454-.403.685-1.047.685-1.915V18.58c0-.867-.23-1.511-.685-1.915-.453-.401-1.066-.605-1.82-.605h-1.859a.723.723 0 0 0-.453.138c-.121.094-.183.206-.183.334v7.055c0 .128.062.24.183.335Zm3.377-2.383c0 .813-.349 1.208-1.065 1.208H12.44v-5.374h1.055c.716 0 1.065.395 1.065 1.207v2.96Zm3.62 2.397a.909.909 0 0 0 .486.124.918.918 0 0 0 .48-.124c.144-.087.217-.207.217-.36v-4.201l2.116 4.22c.155.309.422.465.794.465a.916.916 0 0 0 .48-.124c.144-.087.216-.207.216-.36v-7.044a.388.388 0 0 0-.212-.359.978.978 0 0 0-.484-.113.979.979 0 0 0-.485.113.389.389 0 0 0-.212.36v4.197l-1.892-3.902c-.16-.319-.304-.522-.439-.62-.134-.098-.329-.148-.579-.148a.942.942 0 0 0-.485.119.4.4 0 0 0-.212.364v7.034c0 .152.072.272.212.359Zm9.867-1.452c-.216.151-.492.227-.818.227-.24 0-.46-.043-.658-.13a1.502 1.502 0 0 1-.456-.284 3.683 3.683 0 0 0-.339-.296c-.122-.093-.233-.14-.333-.14-.165 0-.315.089-.444.265a.874.874 0 0 0-.192.517c0 .34.247.655.733.937.48.279 1.062.42 1.73.42.755 0 1.373-.202 1.836-.602.465-.4.701-.977.701-1.712 0-.437-.086-.824-.256-1.15a2.022 2.022 0 0 0-.637-.754 6.993 6.993 0 0 0-.813-.476 9.445 9.445 0 0 0-.812-.363 1.943 1.943 0 0 1-.613-.365.662.662 0 0 1-.24-.508c0-.245.097-.431.294-.57.2-.14.487-.211.856-.211.335 0 .644.066.918.198.383.184.487.206.531.206.181 0 .326-.092.431-.272.101-.174.152-.345.152-.51a.6.6 0 0 0-.228-.465 1.39 1.39 0 0 0-.572-.281 5.405 5.405 0 0 0-.65-.127 4.725 4.725 0 0 0-.582-.038 3.63 3.63 0 0 0-.923.114c-.29.076-.565.198-.82.361a1.777 1.777 0 0 0-.616.695 2.21 2.21 0 0 0-.23 1.027c0 .345.062.656.187.925.124.27.29.49.493.653.2.16.425.306.668.434.243.128.486.245.722.347a7.7 7.7 0 0 1 .653.318c.194.107.352.242.47.404a.896.896 0 0 1 .177.546c0 .294-.104.51-.32.66Z"/>
  <path fill="#fff" d="M28 25h14v17H28z"/>
  <path fill="#948a54ff" d="M38.723 31.233h-7.446a.29.29 0 0 0-.298.284.29.29 0 0 0 .298.283h7.446a.29.29 0 0 0 .298-.283.29.29 0 0 0-.298-.284Zm-7.446-1.7h2.978a.29.29 0 0 0 .298-.283.29.29 0 0 0-.298-.283h-2.978a.29.29 0 0 0-.298.283.29.29 0 0 0 .298.283Zm7.446 3.967h-7.446a.29.29 0 0 0-.298.283.29.29 0 0 0 .298.284h7.446a.29.29 0 0 0 .298-.284.29.29 0 0 0-.298-.283Zm0 2.267h-7.446a.29.29 0 0 0-.298.283.29.29 0 0 0 .298.283h7.446a.29.29 0 0 0 .298-.283.29.29 0 0 0-.298-.283Zm0 2.266h-7.446a.29.29 0 0 0-.298.284.29.29 0 0 0 .298.283h7.446a.29.29 0 0 0 .298-.283.29.29 0 0 0-.298-.284Z"/>
  <path fill="#948a54ff" d="M37.655 25H28v17h14V29.133L37.655 25Zm.175.967 3.153 3H37.83v-3Zm-9.234 15.466V25.567h8.638v3.966h4.17v11.9H28.596Z"/>
</svg>
