<svg xmlns="http://www.w3.org/2000/svg" width="44" height="44" fill="none" viewBox="0 0 44 44">
  <path fill="#224F7C" d="M37.59 6.478A21.854 21.854 0 0 0 22.112.001h-.002a21.855 21.855 0 0 0-15.7 6.477A21.86 21.86 0 0 0 0 22c0 2.89.552 5.698 1.64 8.349a.645.645 0 0 0 1.193-.49 20.54 20.54 0 0 1-1.02-3.215c1.912 2.333 5.257 4.298 9.635 5.547 1.265 4.52 3.298 7.978 5.73 9.952a20.617 20.617 0 0 1-5.675-2.286 20.837 20.837 0 0 1-7.391-7.413.645.645 0 1 0-1.114.651 22.131 22.131 0 0 0 7.85 7.873A21.985 21.985 0 0 0 21.888 44h.222a21.856 21.856 0 0 0 15.48-6.478A21.86 21.86 0 0 0 44 22a21.86 21.86 0 0 0-6.41-15.522Zm-4.379 8.163a35.394 35.394 0 0 0-.289-1.374c2.806.878 5.171 2.083 6.883 3.513 1.676 1.402 2.655 2.972 2.863 4.575h-7.717v-4.64a2.11 2.11 0 0 0-1.74-2.074Zm-10.566-2.938c3.083.048 6.122.446 8.851 1.156.145.569.28 1.153.397 1.75h-9.248v-2.906Zm0-1.29V1.329c1.71.208 3.378 1.243 4.858 3.02 1.477 1.773 2.708 4.207 3.593 7.081-2.642-.624-5.53-.972-8.451-1.017Zm-1.29-9.083v9.083c-1.56.023-3.109.132-4.612.323a.645.645 0 0 0 .164 1.28 40.05 40.05 0 0 1 4.448-.313v2.906h-9.248c.118-.597.252-1.181.397-1.75.494-.13 1-.25 1.51-.357a.645.645 0 0 0-.266-1.261c-.283.06-.564.123-.844.19.884-2.875 2.116-5.309 3.592-7.082 1.48-1.776 3.147-2.81 4.86-3.02ZM10.79 14.64a2.11 2.11 0 0 0-1.74 2.074v4.64H1.331c.207-1.604 1.186-3.173 2.863-4.575 1.712-1.43 4.076-2.635 6.883-3.513-.105.451-.201.91-.29 1.374Zm-.451 2.074c0-.45.367-.817.818-.817h21.687c.451 0 .818.367.818.817v10.57c0 .45-.367.817-.818.817H11.156a.818.818 0 0 1-.818-.817v-10.57Zm2.166 14.426a32.892 32.892 0 0 1-.397-1.75h9.248v2.907c-3.084-.049-6.122-.447-8.851-1.157Zm10.14-1.75h9.25a33.19 33.19 0 0 1-.398 1.75c-2.73.71-5.768 1.108-8.851 1.157v-2.906Zm10.568-.032a2.11 2.11 0 0 0 1.74-2.074v-4.64h7.716c-.208 1.604-1.187 3.174-2.863 4.575-1.712 1.431-4.076 2.635-6.883 3.513.105-.45.201-.909.29-1.374Zm8.978-12c-1.912-2.334-5.258-4.3-9.638-5.55-1.267-4.525-3.303-7.986-5.738-9.958a20.577 20.577 0 0 1 9.862 5.537 20.577 20.577 0 0 1 5.514 9.972ZM7.323 7.39a20.576 20.576 0 0 1 9.865-5.538c-2.437 1.972-4.474 5.433-5.74 9.958-4.38 1.25-7.726 3.216-9.638 5.55a20.575 20.575 0 0 1 5.513-9.97ZM1.332 22.644h7.717v4.64c0 1.036.752 1.9 1.74 2.074.088.465.184.923.289 1.374-2.807-.878-5.171-2.082-6.883-3.513-1.677-1.402-2.656-2.971-2.863-4.575Zm11.572 9.925c2.641.624 5.529.972 8.451 1.017v9.084c-1.71-.208-3.379-1.243-4.858-3.02-1.477-1.773-2.709-4.207-3.593-7.081Zm23.773 4.042a20.577 20.577 0 0 1-9.87 5.539c1.123-.907 2.168-2.136 3.094-3.656a.645.645 0 0 0-1.102-.67c-1.748 2.87-3.913 4.568-6.154 4.844v-9.082c2.922-.045 5.81-.393 8.45-1.017a27.211 27.211 0 0 1-.782 2.21.645.645 0 0 0 1.195.485c.392-.967.742-2 1.043-3.074 4.38-1.25 7.727-3.216 9.64-5.55a20.579 20.579 0 0 1-5.514 9.971Z"/>
  <path fill="#224F7C" d="M12.631 26.19c.135.101.31.152.518.152h2.127c.864 0 1.565-.225 2.083-.67.52-.448.784-1.162.784-2.125v-3.28c0-.962-.263-1.677-.784-2.124-.518-.445-1.219-.671-2.083-.671H13.15a.845.845 0 0 0-.518.153c-.139.104-.21.229-.21.37v7.824c0 .142.071.266.21.37Zm3.864-2.643c0 .901-.398 1.34-1.218 1.34H14.07v-5.959h1.207c.82 0 1.218.438 1.218 1.339v3.28Zm3.146 2.658c.158.091.351.138.575.138.214 0 .406-.047.567-.138.17-.096.257-.23.257-.398v-4.66l2.502 4.68c.183.342.5.515.94.515.214 0 .406-.046.567-.137.17-.096.256-.23.256-.398v-7.811a.427.427 0 0 0-.25-.399 1.22 1.22 0 0 0-.574-.125 1.22 1.22 0 0 0-.573.125.428.428 0 0 0-.25.399v4.654l-2.24-4.326c-.189-.354-.358-.579-.517-.688-.16-.109-.39-.164-.686-.164-.222 0-.416.044-.573.132a.44.44 0 0 0-.251.404v7.8c0 .167.084.3.25.397Zm10.296-1.467c-.248.17-.563.257-.937.257-.273 0-.527-.05-.753-.147a1.724 1.724 0 0 1-.521-.322 4.219 4.219 0 0 0-.389-.334c-.139-.105-.267-.159-.38-.159-.19 0-.361.101-.51.3-.145.195-.218.392-.218.585 0 .383.282.739.839 1.058.548.315 1.215.475 1.98.475.864 0 1.57-.229 2.1-.68.533-.453.803-1.104.803-1.935 0-.493-.099-.93-.294-1.3a2.292 2.292 0 0 0-.728-.85 8.022 8.022 0 0 0-.93-.538 10.844 10.844 0 0 0-.93-.41 2.23 2.23 0 0 1-.701-.413.744.744 0 0 1-.275-.575c0-.276.11-.486.337-.643.227-.159.557-.239.979-.239.383 0 .737.076 1.05.224.44.208.557.233.608.233.207 0 .374-.104.494-.307.115-.197.174-.39.174-.576a.675.675 0 0 0-.262-.526 1.6 1.6 0 0 0-.654-.318 6.235 6.235 0 0 0-.744-.143 5.457 5.457 0 0 0-.666-.043c-.37 0-.726.043-1.057.13a3.301 3.301 0 0 0-.937.407 2.01 2.01 0 0 0-.706.785 2.478 2.478 0 0 0-.264 1.16c0 .39.072.741.215 1.046.142.305.332.553.565.737.229.18.486.346.764.49.277.145.555.277.826.393.27.115.522.236.747.359.222.12.403.274.539.456.134.18.202.388.202.617 0 .333-.12.577-.366.746Z"/>
</svg>
