<svg xmlns="http://www.w3.org/2000/svg" width="44" height="44" fill="none" viewBox="0 0 44 44">
  <path fill="#224F7C" d="M22 1.375C10.627 1.375 1.375 10.627 1.375 22S10.627 42.625 22 42.625 42.625 33.373 42.625 22 33.373 1.375 22 1.375Zm0 39.875C11.386 41.25 2.75 32.614 2.75 22S11.386 2.75 22 2.75 41.25 11.386 41.25 22 32.614 41.25 22 41.25Z"/>
  <path fill="#224F7C" d="M36.449 15.832a.687.687 0 0 1-.918-.321 15.135 15.135 0 0 0-7.042-7.042.687.687 0 1 1 .596-1.239 16.516 16.516 0 0 1 7.686 7.685.687.687 0 0 1-.322.917Zm-7.282-4.658a.687.687 0 1 0-.76 1.145 11.652 11.652 0 0 1 3.273 3.273.686.686 0 0 0 .954.193.687.687 0 0 0 .192-.953c-.97-1.459-2.2-2.69-3.659-3.658ZM15.511 35.53a15.135 15.135 0 0 1-7.041-7.04.689.689 0 0 0-1.24.597 16.517 16.517 0 0 0 7.686 7.684.687.687 0 1 0 .596-1.239Zm-.678-2.705a.686.686 0 1 0 .76-1.145 11.65 11.65 0 0 1-3.274-3.274.688.688 0 0 0-1.145.76 13.01 13.01 0 0 0 3.659 3.66ZM22 13.063c-4.928 0-8.938 4.009-8.938 8.937 0 4.928 4.01 8.938 8.938 8.938 4.928 0 8.938-4.01 8.938-8.938 0-4.928-4.01-8.938-8.938-8.938Zm0 16.5c-4.17 0-7.563-3.393-7.563-7.563S17.83 14.437 22 14.437 29.563 17.83 29.563 22 26.17 29.563 22 29.563Z"/>
  <path fill="#224F7C" d="M22 18.563A3.441 3.441 0 0 0 18.562 22 3.441 3.441 0 0 0 22 25.438 3.441 3.441 0 0 0 25.438 22 3.441 3.441 0 0 0 22 18.562Zm0 5.5A2.065 2.065 0 0 1 19.937 22c0-1.137.926-2.063 2.063-2.063s2.063.926 2.063 2.063A2.065 2.065 0 0 1 22 24.063Z"/>
</svg>
