<svg xmlns="http://www.w3.org/2000/svg" width="44" height="46" fill="none" viewBox="0 0 44 46">
  <g clip-path="url(#a)">
    <path fill="#224F7C" d="M20.533 7.008c-10.614 0-19.25 8.464-19.25 18.867s8.636 18.867 19.25 18.867c10.615 0 19.25-8.464 19.25-18.867S31.148 7.008 20.533 7.008Zm0 36.476c-9.906 0-17.966-7.9-17.966-17.609 0-9.71 8.06-17.61 17.966-17.61 9.907 0 17.967 7.9 17.967 17.61 0 9.71-8.06 17.61-17.967 17.61Z"/>
    <path fill="#224F7C" d="M34.02 20.232a.651.651 0 0 1-.857-.293 13.987 13.987 0 0 0-6.573-6.442.623.623 0 0 1-.3-.84.649.649 0 0 1 .856-.293c3.122 1.473 5.67 3.97 7.174 7.03a.623.623 0 0 1-.3.838Zm-6.797-4.26a.649.649 0 0 0-.89.176.62.62 0 0 0 .18.871c1.218.793 2.246 1.8 3.056 2.995a.651.651 0 0 0 .89.176.62.62 0 0 0 .179-.872 12.027 12.027 0 0 0-3.415-3.346ZM14.477 38.253c-2.86-1.35-5.195-3.638-6.572-6.442a.65.65 0 0 0-.857-.294.624.624 0 0 0-.3.84c1.504 3.06 4.05 5.556 7.173 7.03a.65.65 0 0 0 .857-.294.624.624 0 0 0-.3-.84Zm-.633-2.475c.11.071.232.105.354.105a.644.644 0 0 0 .535-.28.62.62 0 0 0-.18-.872 10.768 10.768 0 0 1-3.055-2.995.65.65 0 0 0-.89-.176.621.621 0 0 0-.179.872 12.027 12.027 0 0 0 3.415 3.346ZM20.533 17.7c-4.6 0-8.341 3.667-8.341 8.175 0 4.508 3.742 8.176 8.341 8.176 4.6 0 8.342-3.668 8.342-8.176s-3.742-8.176-8.342-8.176Zm0 15.093c-3.891 0-7.058-3.104-7.058-6.918s3.167-6.918 7.058-6.918c3.892 0 7.059 3.104 7.059 6.918s-3.167 6.918-7.059 6.918Z"/>
    <path fill="#224F7C" d="M20.533 22.73c-1.769 0-3.208 1.411-3.208 3.145s1.44 3.145 3.208 3.145c1.77 0 3.209-1.411 3.209-3.145s-1.44-3.145-3.209-3.145Zm0 5.032c-1.061 0-1.925-.847-1.925-1.887s.864-1.887 1.925-1.887c1.062 0 1.925.847 1.925 1.887s-.863 1.887-1.925 1.887Z"/>
    <path stroke="#224F7C" stroke-linecap="round" stroke-linejoin="round" stroke-width="2" d="M36.178 17.25V1.917m0 0-5.867 5.75m5.867-5.75 5.867 5.75"/>
  </g>
  <defs>
    <clipPath id="a">
      <path fill="#fff" d="M0 0h44v46H0z"/>
    </clipPath>
  </defs>
</svg>
