<svg xmlns="http://www.w3.org/2000/svg" width="44" height="44" fill="none" viewBox="0 0 44 44">
  <path fill="#f79646" fill-rule="evenodd" d="M6.875 6.875v30.25c0 1.064.693 2.2 2.222 3.086 2.421 1.4 7.286 2.414 12.903 2.414 5.617 0 10.482-1.015 12.903-2.414 1.529-.886 2.222-2.022 2.222-3.086V6.85c-.011-1.057-.704-2.182-2.222-3.06C32.482 2.39 27.617 1.375 22 1.375c-5.617 0-10.482 1.015-12.903 2.415-1.529.885-2.222 2.02-2.222 3.085Zm27.5 23.303c-2.559 1.253-7.142 2.134-12.375 2.134-5.235 0-9.818-.88-12.375-2.133v6.946c0 .115.132.177.246.282.36.323.894.61 1.554.881 2.385.975 6.237 1.587 10.575 1.587 4.338 0 8.19-.612 10.575-1.587.66-.27 1.194-.558 1.554-.881.114-.105.246-.166.246-.282v-6.947Zm0-9.625c-2.559 1.253-7.142 2.134-12.375 2.134-5.235 0-9.818-.88-12.375-2.134v6.258c.001.118.135.183.253.289.363.324.898.61 1.56.881 2.386.972 6.232 1.581 10.562 1.581 4.338 0 8.19-.611 10.575-1.586.66-.271 1.194-.558 1.554-.882.114-.104.246-.166.246-.282v-6.259Zm0-10.312c-2.559 1.253-7.142 2.134-12.375 2.134s-9.816-.881-12.375-2.134v6.945c.001.118.135.183.253.289.363.324.898.61 1.56.881 2.386.972 6.232 1.581 10.562 1.581 4.338 0 8.19-.611 10.575-1.586.66-.271 1.194-.558 1.554-.882.114-.104.246-.166.246-.282v-6.946ZM22 4.125c4.338 0 8.19.612 10.575 1.587.66.27 1.194.558 1.554.881.114.105.246.167.246.282 0 .115-.132.177-.246.282-.36.323-.894.61-1.554.881C30.19 9.013 26.338 9.625 22 9.625c-4.338 0-8.19-.612-10.575-1.587-.66-.27-1.194-.558-1.554-.881-.114-.105-.246-.167-.246-.282 0-.115.132-.177.246-.282.36-.323.894-.61 1.554-.881C13.81 4.737 17.662 4.125 22 4.125Z" clip-rule="evenodd"/>
</svg>
