<?xml version="1.0" encoding="UTF-8"?>
<!-- Generator: Adobe Illustrator 26.0.1, SVG Export Plug-In . SVG Version: 6.00 Build 0)  -->
<svg xmlns="http://www.w3.org/2000/svg" xmlns:xlink="http://www.w3.org/1999/xlink" version="1.1" id="Capa_1" x="0px" y="0px" viewBox="0 0 512 512" xml:space="preserve" width="44" height="44">
<g fill="#f79646">
	<path d="M502.602,314.086c-0.308-0.931-0.713-1.774-1.201-2.538c-2.964-5.616-10.167-7.295-21.491-4.954   c-35.271,7.278-48.928,2.799-53.88-0.407c28.63-43.695,52.161-96.47,64.876-145.701c5.79-22.415,17.027-75.173,2.607-100.942   c-0.953-1.8-2.018-3.481-3.218-5.014c-27.508-35.149-67.879-54.002-116.75-54.521c-31.905-0.312-59.105,7.387-66.477,10.228   c-3.578-0.67-7.249-1.25-11.007-1.741c-8.768-1.597-18.08-2.564-27.977-2.726c-25.221-0.401-47.016,5.632-65.064,17.933   c-18.291-6.853-102.161-35.093-154.065,1.68C19.966,45.921,6.584,82.629,9.178,134.491c0.873,17.451,10.813,71.127,26.503,122.532   c9.81,32.139,20.026,57.639,30.58,76.415c11.797,21.211,24.018,33.991,36.571,38.178c9.543,3.181,24.167,3.072,39.64-15.529   c17.092-20.556,33.928-38.951,41.484-47.083c9.282,5.024,19.338,7.733,29.654,8.046c0.003,0.03,0.005,0.06,0.008,0.089   c-2.094,2.482-3.811,4.657-5.274,6.515c-7.229,9.177-8.734,11.087-32.004,15.878c-6.618,1.365-24.2,4.989-24.456,17.312   c-0.054,2.613,0.702,4.929,1.963,6.974c4.843,9.022,19.658,13.003,21.65,13.5c28.473,7.123,53.427,1.97,71.924-14.476   c-0.363,47.592,1.654,94.235,7.369,108.531c4.719,11.796,16.25,40.629,52.673,40.625c5.343-0.001,11.229-0.622,17.701-2.009   c38.014-8.148,54.521-24.95,60.907-61.99c3.206-18.575,8.567-61.341,11.494-87.494c0.36-1.5,0.762-2.574,1.215-2.905   c0.015-0.011,1.486-1.004,9.113,0.654c0.312,0.069,0.627,0.116,0.945,0.145l5.416,0.476c0.105,0.008,0.212,0.015,0.319,0.021   c18.072,0.822,40.778-3.044,53.999-9.19C482.307,343.334,507.094,327.686,502.602,314.086z M50.58,253.364   c-15.861-51.963-25.129-104.215-25.862-118.867c-2.316-46.323,8.897-78.569,33.33-95.844   c39.183-27.704,103.249-11.537,130.303-2.774c-0.068,0.069-0.141,0.131-0.209,0.2c-43.174,43.605-42.15,118.102-42.045,122.655   c-0.004,1.757,0.143,4.245,0.345,7.667c0.742,12.529,2.125,35.849-1.568,62.259c-3.432,24.542,4.132,48.562,20.751,65.902   c1.721,1.796,3.517,3.481,5.373,5.067c-7.399,7.922-23.476,25.441-40.588,46.029c-12.109,14.557-20.473,11.771-23.223,10.851   c-8.362-2.789-17.35-12.53-26.422-28.226C70.541,310.385,60.22,284.948,50.58,253.364z M178.735,361.888   c-3.651-0.913-6.979-2.415-9.221-3.78c1.897-0.84,5.066-1.923,10.311-3.004c27.377-5.636,31.604-9.614,40.839-21.338   c2.116-2.686,4.514-5.732,7.834-9.441c0.725-0.81,1.252-1.757,1.571-2.769c3.643-3.225,5.811-2.345,9.32-0.891   c3.327,1.378,6.567,5.547,7.882,10.137c0.62,2.167,1.32,6.282-0.965,9.482C227.019,367.29,198.917,366.941,178.735,361.888z    M223.406,276.811l-1.121,3.011c-2.837,7.605-5.475,14.678-7.111,21.394c-14.24-0.043-28.091-6.127-38.626-17.119   c-13.395-13.975-19.478-33.417-16.692-53.341c3.901-27.9,2.461-52.197,1.687-65.25c-0.108-1.827-0.203-3.427-0.261-4.691   c6.307-5.592,35.54-21.257,56.381-16.477c9.513,2.18,15.308,8.656,17.718,19.797c12.472,57.68,1.651,81.723-7.044,101.04   C226.545,269.157,224.853,272.918,223.406,276.811z M380.5,374.359c-0.36,3.771-0.764,8.02-1.318,12.712l-3.114,9.352   c-0.246,0.741-0.377,1.516-0.387,2.297c-0.126,10.127-1.153,13.842-2.453,18.546c-1.352,4.889-2.885,10.433-3.828,22.558   c-2.348,30.172-18.734,47.502-51.568,54.539c-32.333,6.936-38.063-10.598-43.119-26.062c-0.56-1.714-1.09-3.332-1.642-4.835   c-4.596-12.499-4.077-30.12-3.358-54.509c0.353-11.973-0.531-40.56-7.044-56.452c0.093-6.254,0.226-12.606,0.405-19.025   c0.023-0.837-0.096-1.643-0.326-2.403c-0.2-1.463-0.509-2.944-0.936-4.436c-2.615-9.137-8.987-16.78-16.633-19.949   c-3.037-1.258-8.614-3.567-15.313-1.854c1.428-5.886,3.906-12.53,6.591-19.728l1.129-3.033c1.269-3.413,2.86-6.949,4.545-10.693   c9.099-20.214,21.559-47.899,8.035-110.446c-5.067-23.426-21.988-34.867-47.627-32.209c-15.375,1.592-29.439,7.795-36.454,11.351   c-1.508,0.764-2.888,1.503-4.177,2.222c1.957-23.605,9.357-67.716,37.027-95.624c2.073-2.091,4.234-4.047,6.47-5.885   c1.102-0.221,2.162-0.672,3.089-1.374c16.051-12.173,36.156-18.152,59.776-17.761c8.727,0.142,17.103,0.724,25.051,1.729   c41.365,7.561,69.203,30.866,86.099,50.832c17.371,20.529,26.778,41.206,30.533,52.358c-28.231-2.871-47.434,2.703-57.166,16.618   c-21.177,30.269,11.585,89.021,27.329,117.256c2.887,5.176,5.38,9.646,6.163,11.546c5.126,12.429,11.765,20.724,16.613,26.781   c1.485,1.855,2.926,3.655,4.022,5.225c-8.552,2.466-23.911,8.163-22.511,36.63c-0.263,3.335-0.902,9.533-1.78,17.383   C381.638,362.444,381.122,367.831,380.5,374.359z M399.496,339.774c-0.864-17.74,5.742-19.595,12.73-21.557   c0.986-0.276,1.945-0.553,2.881-0.867c0.837,0.741,1.777,1.48,2.863,2.197c12.167,8.033,33.755,8.987,64.147,2.866   c-4.301,3.775-11.07,8.522-20.338,12.825c-8.744,4.058-23.376,7.102-37.275,7.755C409.143,343.72,401.335,341.274,399.496,339.774z    M411.647,141.989c-0.126,7.484-1.156,14.278-2.249,21.371c-1.174,7.629-2.39,15.517-2.696,25.091   c-0.302,9.319,0.862,19.006,1.987,28.375c2.275,18.924,4.608,38.405-4.427,57.629c-1.404-2.493-2.759-5.214-4.001-8.228   c-1.123-2.722-3.561-7.094-6.936-13.146c-13.134-23.553-43.892-78.711-28.146-101.218   C373.277,140.289,393.783,139.788,411.647,141.989z M416.519,291.615c-0.591-0.752-1.195-1.512-1.818-2.29   c-0.249-0.312-0.503-0.629-0.759-0.95c15.493-25.588,12.464-50.906,9.767-73.353c-1.108-9.211-2.153-17.912-1.888-26.083   c0.276-8.664,1.421-16.092,2.528-23.276c1.363-8.853,2.748-18.013,2.366-28.812c0.285-1.132,0.4-2.47,0.251-4.058   c-0.975-10.357-12.797-41.345-36.895-69.397c-12.961-15.087-31.773-31.936-57.353-43.504c11.204-2.272,26.299-4.34,43.175-3.97   c43.766,0.974,78.391,17.355,102.917,48.691c0.506,0.647,0.977,1.37,1.426,2.139C495.661,95.67,474.343,200.62,416.519,291.615z"/>
	<path d="M215.389,152.207c-5.5-0.767-10.482-0.059-13.003,1.85c-1.418,1.074-1.856,2.317-1.974,3.173   c-0.316,2.269,1.273,4.777,2.249,6.07c2.762,3.661,6.797,6.178,10.793,6.732c0.578,0.081,1.154,0.119,1.727,0.118   c6.662,0,12.717-5.186,13.251-9.014C229.098,156.341,222.138,153.146,215.389,152.207z"/>
	<path d="M384.056,148.411c-6.336,0.883-12.483,3.743-11.97,7.51c0.412,2.929,5.7,7.93,11.962,7.929c0.527,0,1.062-0.036,1.6-0.111   c4.178-0.579,7.245-3.232,8.702-4.762c2.22-2.331,3.502-4.929,3.267-6.619l-0.001,0C397.092,148.6,390.402,147.525,384.056,148.411   z"/>
</g>















</svg>
