<svg xmlns="http://www.w3.org/2000/svg" width="44" height="44" fill="none" viewBox="0 0 44 44">
  <path fill="#224F7C" d="M29.911 23.094c1.438-.006 1.439-2.194 0-2.2h-3.693c-.818-.111-1.706 1.652-2.52 2.564l-1.965-6.823c-.232-.91-1.543-1.077-2-.263l-2.712 4.522h-2.957c-1.436.005-1.44 2.194 0 2.2h3.587a1.1 1.1 0 0 0 .945-.534l1.73-2.888 1.866 6.482a1.1 1.1 0 0 0 1.927.368l2.64-3.428h3.152ZM8.3 16.682c-10.339.053-10.645 15.388-.336 15.884.708.1 1.443-.329 1.434-1.1V17.782a1.098 1.098 0 0 0-1.098-1.1ZM7.2 30.266c-6.178-.962-6.175-10.331 0-11.293v11.293Z"/>
  <path fill="#224F7C" d="M43.611 24.631a7.717 7.717 0 0 0-6.907-7.843C35.37 2.13 15.688-1.755 8.865 11.252a1.1 1.1 0 0 0 1.95 1.017c6.127-11.615 23.686-7.296 23.76 5.806v13.39c.249 1.924 2.903.89 4.106.54v2.1a1.569 1.569 0 0 1-1.637 1.636H31.84c-1.598-4.791-8.682-2.625-7.323 2.241 1.023 3.58 6.347 3.551 7.33-.04h5.198a3.752 3.752 0 0 0 3.83-3.836v-3.434a7.838 7.838 0 0 0 2.737-6.04ZM28.176 38.498c-2.153-.04-2.147-3.244.003-3.28v.007c2.152.038 2.147 3.24-.003 3.273Zm8.594-8.226V18.979c6.173.963 6.176 10.335 0 11.293Z"/>
</svg>
