<svg xmlns="http://www.w3.org/2000/svg" width="44" height="44" fill="none" viewBox="0 0 44 44">
  <g clip-path="url(#a)">
    <path fill="#948a54ff" d="M42.71 37.555H26.994a5.177 5.177 0 0 0-3.704-3.704V28.3c7.217-.653 12.89-6.738 12.89-14.121C36.18 6.36 29.82 0 22 0S7.82 6.361 7.82 14.18c0 7.383 5.674 13.468 12.89 14.122v5.549a5.177 5.177 0 0 0-3.703 3.704H1.289a1.29 1.29 0 0 0 0 2.578h15.718A5.166 5.166 0 0 0 22 44a5.166 5.166 0 0 0 4.993-3.867h15.718a1.29 1.29 0 0 0 0-2.578ZM33.603 14.18c0 .563-.91 1.474-2.943 2.244-.788.298-1.669.55-2.618.753.166-1.92.173-3.992 0-5.995 3.76.803 5.56 2.188 5.56 2.998Zm-.746-4.095c-1.562-.784-3.44-1.288-5.167-1.594-.306-1.728-.81-3.606-1.594-5.167a11.665 11.665 0 0 1 6.76 6.76Zm-5.167 9.784c1.728-.306 3.606-.81 5.167-1.594a11.665 11.665 0 0 1-6.761 6.76c.784-1.561 1.288-3.44 1.594-5.166ZM22 2.579c.563 0 1.475.91 2.244 2.942.298.788.55 1.669.753 2.618a35.37 35.37 0 0 0-5.994 0c.806-3.777 2.193-5.56 2.997-5.56Zm-11.602 11.6c0-.562.91-1.474 2.943-2.243a18.193 18.193 0 0 1 2.619-.754 35.357 35.357 0 0 0 0 5.995c-3.754-.802-5.562-2.185-5.562-2.997Zm.746 4.096c1.562.784 3.44 1.288 5.167 1.594.306 1.727.81 3.605 1.594 5.166a11.665 11.665 0 0 1-6.76-6.76Zm5.167-9.784c-1.728.306-3.606.81-5.167 1.594a11.665 11.665 0 0 1 6.761-6.76c-.784 1.56-1.288 3.439-1.594 5.166Zm2.278 2.278a32.624 32.624 0 0 1 6.822 0 32.67 32.67 0 0 1 0 6.821c-2.212.239-4.61.239-6.822 0a32.623 32.623 0 0 1 0-6.821Zm1.167 12.07a18.155 18.155 0 0 1-.753-2.619c1.919.166 3.992.174 5.994 0-.797 3.737-2.178 5.561-2.997 5.561-.563 0-1.475-.91-2.244-2.942Zm.012 17.294c-.996-1.717.256-3.867 2.232-3.867a2.582 2.582 0 0 1 2.578 2.578c0 2.622-3.488 3.567-4.81 1.289Z"/>
  </g>
  <defs>
    <clipPath id="a">
      <path fill="#fff" d="M0 0h44v44H0z"/>
    </clipPath>
  </defs>
</svg>
