<svg xmlns="http://www.w3.org/2000/svg" width="44" height="44" fill="none" viewBox="0 0 44 44">
  <path fill="#948a54ff" d="M42.71 20.71h-1.733a11.467 11.467 0 0 0 1.218-5.168 11.44 11.44 0 0 0-3.373-8.143 11.442 11.442 0 0 0-8.143-3.373 11.441 11.441 0 0 0-8.144 3.373L22 7.934l-.535-.535a11.441 11.441 0 0 0-8.144-3.373 11.442 11.442 0 0 0-8.143 3.373 11.442 11.442 0 0 0-3.373 8.143c0 1.825.421 3.585 1.218 5.169H1.29a1.29 1.29 0 0 0 0 2.578H4.8c.123.135.25.267.379.397l15.91 15.91a1.285 1.285 0 0 0 1.823 0l15.911-15.91c.13-.13.256-.262.379-.397h3.51a1.29 1.29 0 0 0 0-2.578ZM4.384 15.543A8.88 8.88 0 0 1 7 9.223a8.88 8.88 0 0 1 6.32-2.618 8.88 8.88 0 0 1 6.321 2.618l1.447 1.446a1.29 1.29 0 0 0 1.823 0l1.446-1.446a8.88 8.88 0 0 1 6.32-2.618A8.88 8.88 0 0 1 37 9.222a8.88 8.88 0 0 1 2.618 6.32 8.873 8.873 0 0 1-1.643 5.169h-6.757l-2.886-4.557a1.29 1.29 0 0 0-2.207.05l-4.226 7.378-5.451-10.758a1.29 1.29 0 0 0-2.339.083l-3.277 7.804H6.026a8.873 8.873 0 0 1-1.643-5.168ZM22 36.862 8.427 23.29h3.26c.52 0 .988-.311 1.189-.79l2.53-6.024 5.272 10.404a1.289 1.289 0 0 0 2.269.059l4.35-7.597 2.122 3.349c.236.373.647.6 1.089.6h5.065L22 36.861Z"/>
</svg>
