<svg xmlns="http://www.w3.org/2000/svg" width="42" height="42" fill="none" viewBox="0 0 42 42">
  <g clip-path="url(#a)">
    <path fill="#224F7C" d="M18.375 5.915H5.25a.647.647 0 1 0 0 1.295h13.125a.647.647 0 1 0 0-1.295ZM34.78 8.53a1.968 1.968 0 1 0 0-3.936 1.968 1.968 0 0 0 0 3.936Z"/>
    <path fill="#224F7C" d="M39.375 0H2.625A2.625 2.625 0 0 0 0 2.625V10.5a2.625 2.625 0 0 0 2.625 2.625h36.75A2.625 2.625 0 0 0 42 10.5V2.625A2.625 2.625 0 0 0 39.375 0Zm1.313 10.5c0 .724-.59 1.313-1.313 1.313H2.625A1.314 1.314 0 0 1 1.312 10.5V2.625c0-.724.59-1.313 1.313-1.313h36.75c.724 0 1.313.59 1.313 1.313V10.5Zm-22.313 9.853H5.25a.647.647 0 1 0 0 1.294h13.125a.647.647 0 1 0 0-1.294Zm16.405 2.615a1.968 1.968 0 1 0 0-3.937 1.968 1.968 0 0 0 0 3.937Z"/>
    <path fill="#224F7C" d="M39.375 14.438H2.625A2.625 2.625 0 0 0 0 17.061v7.875a2.625 2.625 0 0 0 2.625 2.625h36.75A2.625 2.625 0 0 0 42 24.938v-7.875a2.625 2.625 0 0 0-2.625-2.625Zm1.313 10.5c0 .723-.59 1.312-1.313 1.312H2.625a1.314 1.314 0 0 1-1.313-1.313v-7.875c0-.723.59-1.312 1.313-1.312h36.75c.724 0 1.313.589 1.313 1.313v7.875ZM18.375 34.79H5.25a.647.647 0 1 0 0 1.295h13.125a.647.647 0 1 0 0-1.295Zm16.405 2.615a1.968 1.968 0 1 0 0-3.936 1.968 1.968 0 0 0 0 3.936Z"/>
    <path fill="#224F7C" d="M39.375 28.875H2.625A2.625 2.625 0 0 0 0 31.5v7.875A2.625 2.625 0 0 0 2.625 42h36.75A2.625 2.625 0 0 0 42 39.375V31.5a2.625 2.625 0 0 0-2.625-2.625Zm1.313 10.5c0 .724-.59 1.313-1.313 1.313H2.625a1.314 1.314 0 0 1-1.313-1.313V31.5c0-.724.59-1.313 1.313-1.313h36.75c.724 0 1.313.59 1.313 1.313v7.875Z"/>
  </g>
  <defs>
    <clipPath id="a">
      <path fill="#fff" d="M0 0h42v42H0z"/>
    </clipPath>
  </defs>
</svg>
