<svg xmlns="http://www.w3.org/2000/svg" width="44" height="44" fill="none" viewBox="0 0 44 44">
  <path fill="#224F7C" d="m11.154 4.041 10.089 10.114-5.045 5.036L6.108 9.077z"/>
  <path fill="#224F7C" d="M25.172 23.203 12.087 23l12.91-12.885.175 13.09Zm2.18 18.829L16.453 31.13l2.8-2.799L30.15 39.234z"/>
  <path fill="#224F7C" d="m15.054 26.932 6.784-.487-7.27 7.273.486-6.786Zm22.234 5.27-8.631-8.65 2.886-2.882 8.631 8.651z"/>
  <path fill="#224F7C" d="m27.302 19.383 8.031.125-7.922 7.909-.109-8.034Z"/>
  <path fill="#224F7C" fill-rule="evenodd" d="M14.699 4.012 4.118 14.446 4.01 29.308l10.432 10.585L29.3 40l10.581-10.434.106-14.863-10.43-10.585-14.858-.106ZM31.242.13 13.072 0 .13 12.76 0 30.938l12.757 12.945L29.32 44l-1.966-1.967 2.798-2.799 2.79 2.792 7.183-7.081-2.808-2.814 2.8-2.796 2.826 2.831.928-.915.13-18.176L31.242.13Z" clip-rule="evenodd"/>
</svg>
